<?xml version="1.0" encoding="UTF-8"?>
<svg version="1.1" xmlns="http://www.w3.org/2000/svg" width="1000" height="1000">
<path d="M0 0 C1.26729446 -0.00705963 2.53458893 -0.01411926 3.84028625 -0.02139282 C7.90788863 -0.03890715 11.97533655 -0.046085 16.04296875 -0.046875 C17.0839484 -0.04731686 17.0839484 -0.04731686 18.14595795 -0.04776764 C39.31233084 -0.0492187 60.23702367 0.18677907 81.23046875 3.203125 C81.93101379 3.30258423 82.63155884 3.40204346 83.35333252 3.5045166 C133.01856642 10.59935473 180.81866359 24.12596186 226.5078125 44.96289062 C228.92004707 46.06172057 231.33922164 47.1428121 233.76171875 48.21875 C246.02337488 53.73973527 257.61972122 60.44097467 269.23046875 67.203125 C270.11202637 67.71423828 270.99358398 68.22535156 271.90185547 68.75195312 C296.91417836 83.30492233 320.44226406 100.14647989 342.23046875 119.203125 C342.96007812 119.83347656 343.6896875 120.46382813 344.44140625 121.11328125 C346.38256618 122.79741012 348.3090726 124.49649569 350.23046875 126.203125 C351.43123047 127.26466797 351.43123047 127.26466797 352.65625 128.34765625 C357.42541312 132.59575755 362.02084269 136.94810067 366.49609375 141.50390625 C368.29844686 143.33328554 368.29844686 143.33328554 370.79296875 145.203125 C373.65180046 147.54883307 375.88160589 150.18891395 378.27734375 152.99609375 C380.34336524 155.33069803 382.50933039 157.51598365 384.73046875 159.703125 C388.77888373 163.7106469 392.54103046 167.86615265 396.23046875 172.203125 C397.00648438 173.09 397.7825 173.976875 398.58203125 174.890625 C407.00487929 184.58508626 414.62274283 194.86436475 422.23046875 205.203125 C422.69839844 205.83331543 423.16632812 206.46350586 423.6484375 207.11279297 C436.57670216 224.54108821 447.78414391 243.20427445 458.23046875 262.203125 C458.69549805 263.04665527 459.16052734 263.89018555 459.63964844 264.75927734 C495.42726601 330.13616726 517.16623717 407.54685196 517.43359375 482.34765625 C517.44065338 483.66358261 517.44771301 484.97950897 517.45498657 486.33531189 C517.47452587 490.56208854 517.47967866 494.78880742 517.48046875 499.015625 C517.48091061 500.09560509 517.48091061 500.09560509 517.48136139 501.19740295 C517.48275971 522.3386505 517.34859346 543.24332413 514.23046875 564.203125 C514.02431517 565.63117062 513.81826537 567.05923123 513.61230469 568.48730469 C506.30327555 618.47942632 492.23789827 666.2369254 471.23046875 712.203125 C470.66078369 713.4701123 470.66078369 713.4701123 470.07958984 714.76269531 C452.11431625 754.6944889 427.02684689 792.27910412 398.23046875 825.203125 C397.60011719 825.93273437 396.96976563 826.66234375 396.3203125 827.4140625 C391.69737458 832.74255131 386.97047778 837.9788426 382.23046875 843.203125 C381.75383789 843.73164062 381.27720703 844.26015625 380.78613281 844.8046875 C375.47954998 850.68190738 370.24126849 856.44150369 364.15625 861.53125 C361.90198022 863.48830368 359.82510328 865.57637512 357.73046875 867.703125 C353.72294685 871.75153998 349.5674411 875.51368671 345.23046875 879.203125 C344.34359375 879.97914063 343.45671875 880.75515625 342.54296875 881.5546875 C332.84850749 889.97753554 322.569229 897.59539908 312.23046875 905.203125 C311.60027832 905.67105469 310.97008789 906.13898437 310.32080078 906.62109375 C292.88877278 919.55212736 274.22067783 930.73388502 255.23046875 941.203125 C254.42416016 941.65220215 253.61785156 942.1012793 252.78710938 942.56396484 C199.95598212 971.83035931 140.84801229 989.00319229 81.23046875 997.203125 C80.04598145 997.36973633 78.86149414 997.53634766 77.64111328 997.70800781 C37.50572701 1003.06827093 -6.69845206 1002.96055244 -46.76953125 997.203125 C-47.47007629 997.10366577 -48.17062134 997.00420654 -48.89239502 996.9017334 C-144.28481921 983.27461932 -234.92152704 944.91826732 -307.76953125 881.203125 C-308.49914062 880.57277344 -309.22875 879.94242188 -309.98046875 879.29296875 C-311.92162868 877.60883988 -313.8481351 875.90975431 -315.76953125 874.203125 C-316.57003906 873.49542969 -317.37054688 872.78773438 -318.1953125 872.05859375 C-322.96447562 867.81049245 -327.55990519 863.45814933 -332.03515625 858.90234375 C-333.83750936 857.07296446 -333.83750936 857.07296446 -336.33203125 855.203125 C-339.19086296 852.85741693 -341.42066839 850.21733605 -343.81640625 847.41015625 C-345.88242774 845.07555197 -348.04839289 842.89026635 -350.26953125 840.703125 C-354.31794623 836.6956031 -358.08009296 832.54009735 -361.76953125 828.203125 C-362.54554688 827.31625 -363.3215625 826.429375 -364.12109375 825.515625 C-372.54394179 815.82116374 -380.16180533 805.54188525 -387.76953125 795.203125 C-388.23746094 794.57293457 -388.70539063 793.94274414 -389.1875 793.29345703 C-402.11576466 775.86516179 -413.32320641 757.20197555 -423.76953125 738.203125 C-424.4670752 736.93782959 -424.4670752 736.93782959 -425.17871094 735.64697266 C-460.96632851 670.27008274 -482.70529967 592.85939804 -482.97265625 518.05859375 C-482.97971588 516.74266739 -482.98677551 515.42674103 -482.99404907 514.07093811 C-483.01358837 509.84416146 -483.01874116 505.61744258 -483.01953125 501.390625 C-483.01982582 500.67063828 -483.02012039 499.95065155 -483.02042389 499.20884705 C-483.02182221 478.0675995 -482.88765596 457.16292587 -479.76953125 436.203125 C-479.56337767 434.77507938 -479.35732787 433.34701877 -479.15136719 431.91894531 C-471.84233805 381.92682368 -457.77696077 334.1693246 -436.76953125 288.203125 C-436.19984619 286.9361377 -436.19984619 286.9361377 -435.61865234 285.64355469 C-417.65337875 245.7117611 -392.56590939 208.12714588 -363.76953125 175.203125 C-363.13917969 174.47351563 -362.50882812 173.74390625 -361.859375 172.9921875 C-360.17524613 171.05102757 -358.47616056 169.12452115 -356.76953125 167.203125 C-356.06183594 166.40261719 -355.35414063 165.60210937 -354.625 164.77734375 C-350.3768987 160.00818063 -346.02455558 155.41275106 -341.46875 150.9375 C-339.63937071 149.13514689 -339.63937071 149.13514689 -337.76953125 146.640625 C-335.42382318 143.78179329 -332.7837423 141.55198786 -329.9765625 139.15625 C-327.64195822 137.09022851 -325.4566726 134.92426336 -323.26953125 132.703125 C-319.26200935 128.65471002 -315.1065036 124.89256329 -310.76953125 121.203125 C-309.43921875 120.03910156 -309.43921875 120.03910156 -308.08203125 118.8515625 C-298.38756999 110.42871446 -288.1082915 102.81085092 -277.76953125 95.203125 C-277.13934082 94.73519531 -276.50915039 94.26726562 -275.85986328 93.78515625 C-258.43156804 80.85689159 -239.7683818 69.64944984 -220.76953125 59.203125 C-219.92600098 58.7380957 -219.0824707 58.27306641 -218.21337891 57.79394531 C-164.35311583 28.31058353 -104.28826964 10.33648346 -43.45703125 2.953125 C-42.77274048 2.86995026 -42.08844971 2.78677551 -41.38342285 2.70108032 C-27.59697386 1.04629883 -13.89152624 0.05184534 0 0 Z " fill="#4678D3" transform="translate(482.76953125,-0.203125)"/>
</svg>
